<svg width="224" height="238" viewBox="0 0 16 17" fill="none" xmlns="http://www.w3.org/2000/svg">
<path d="M8.302 13.3111C5.68 13.3111 3.87 11.4427 3.87 8.67123C3.87 5.89963 5.68 4.06243 8.302 4.06243C10.767 4.06243 12.609 5.89963 12.609 8.67123C12.609 11.4427 10.767 13.3111 8.302 13.3111ZM12.765 3.31503C11.704 1.63343 9.987 0.82373 7.771 0.82373C3.371 0.82373 0.25 3.96903 0.25 8.67123C0.25 13.3423 3.339 16.5497 7.771 16.5497C9.769 16.5497 11.329 15.8958 12.39 14.5879V16.0827H15.979V1.29093H12.952L12.765 3.31503Z" fill="white"/>
</svg>
