<svg width="200" height="61" viewBox="0 0 200 61" fill="none" xmlns="http://www.w3.org/2000/svg">
<path d="M109.171 25.8237C107.049 25.8237 105.364 26.6334 104.459 28.2215L104.271 26.2908H101.244V41.0825H104.833V32.8303C104.833 30.7127 105.801 29.0623 108.266 29.0623C110.576 29.0623 111.418 30.7127 111.418 32.8303V41.0825H115.007V31.7403C115.007 28.4395 113.041 25.8237 109.171 25.8237Z" fill="white"/>
<path d="M87.8248 32.2075C88.3242 30.4325 89.7597 29.0623 92.0692 29.0623C94.3163 29.0623 95.6583 30.4948 95.9704 32.2075H87.8248ZM92.0692 25.8237C87.3566 25.8237 84.1733 29.3115 84.1733 33.6712C84.1733 37.8128 87.1069 41.5497 92.1316 41.5497C95.5334 41.5497 98.1238 39.8681 99.2786 37.1589L96.0016 36.1001C95.3775 37.5326 93.973 38.3111 92.1628 38.3111C89.6037 38.3111 88.1368 36.723 87.7623 34.7922H99.497C99.934 29.4983 96.8754 25.8237 92.0692 25.8237Z" fill="white"/>
<path d="M80.8206 19.6118H78.9631L78.9614 41.0828H82.5504L82.5521 21.3396C82.5521 20.3029 81.765 19.6118 80.8206 19.6118Z" fill="white"/>
<path d="M145.186 26.2907H140.848L134.95 32.3631L134.952 21.3454C134.952 20.435 134.161 19.6763 133.309 19.6763H131.363L131.361 41.0825H134.95V36.754L137.009 34.6364L141.223 41.0825H145.374L139.444 32.1452L145.186 26.2907Z" fill="white"/>
<path d="M165.409 28.5332L165.191 26.2911H162.164V41.0829H165.753V33.9205C165.753 30.9622 166.845 29.6854 169.373 29.6854H169.997V26.0107C167.719 26.0107 166.127 26.9139 165.409 28.5332Z" fill="white"/>
<path d="M179.047 29.4671V26.2907H174.99V21.6079H171.401V35.1347C171.401 38.9961 172.868 41.0825 177.112 41.0825H179.047V37.8128H177.175C175.802 37.8128 174.99 37.0654 174.99 35.6018V29.4671H179.047Z" fill="white"/>
<path d="M152.302 38.3111C149.68 38.3111 147.87 36.4427 147.87 33.6712C147.87 30.8996 149.68 29.0624 152.302 29.0624C154.767 29.0624 156.609 30.8996 156.609 33.6712C156.609 36.4427 154.767 38.3111 152.302 38.3111ZM156.765 28.315C155.704 26.6334 153.987 25.8237 151.771 25.8237C147.371 25.8237 144.25 28.969 144.25 33.6712C144.25 38.3423 147.339 41.5497 151.771 41.5497C153.769 41.5497 155.329 40.8958 156.39 39.5879V41.0827H159.979V26.2909H156.952L156.765 28.315Z" fill="white"/>
<path d="M125.462 32.3321L122.684 31.8961C121.03 31.6159 120.375 31.2422 120.375 30.4326C120.375 29.654 121.124 28.9066 122.809 28.9066C124.994 28.9066 126.149 29.9654 126.773 31.1487L129.332 29.1869C128.302 27.3808 126.429 25.8237 123.246 25.8237C119.376 25.8237 116.973 27.7857 116.973 30.5571C116.973 32.8615 118.346 34.4497 121.342 34.8856L124.058 35.2905C126.055 35.6019 126.336 36.2247 126.336 36.9098C126.336 37.7818 125.368 38.4669 123.839 38.4669C121.842 38.4669 120.156 37.5949 119.033 35.6953L116.193 37.6883C117.785 40.3664 120.437 41.5497 123.589 41.5497C127.647 41.5497 129.8 39.3076 129.8 36.5361C129.8 34.3874 128.645 32.8303 125.462 32.3321Z" fill="white"/>
<path d="M33.1875 38.7674C37.7006 38.6736 41.2971 35.5776 41.4616 30.7695C41.9082 32.7631 42.778 34.5222 43.7417 36.0233C41.0385 38.1108 38.4763 39.0489 35.7967 39.0489C34.88 39.0489 34.0338 38.955 33.1875 38.7674Z" fill="white"/>
<path d="M71.3614 30.3704C71.3614 30.8161 71.0793 31.121 70.6327 31.121H69.5985L69.6454 30.4642C69.8336 27.8374 69.2693 26.0548 68.1646 24.4834L70.6797 25.2105C71.2203 25.3982 71.3614 25.6561 71.3614 26.3598V30.3704Z" fill="white"/>
<path d="M19.4839 26.3598C19.4839 25.6561 19.6249 25.3746 20.142 25.2105L22.7747 24.4834C21.576 26.1722 20.9882 28.4472 21.0822 30.4408L21.1293 31.121H20.1891C19.766 31.121 19.4839 30.8161 19.4839 30.3704V26.3598Z" fill="white"/>
<path d="M28.5806 24.2254C29.9439 22.5132 31.8714 21.6689 34.3865 21.6689C38.9467 21.6689 42.5901 24.4365 44.3531 29.057L45.2933 31.4493C47.5734 37.4301 50.535 40.4088 53.9904 41.5112C48.6076 40.7137 44.3765 37.5005 42.5901 32.2233L41.7909 29.8075C40.0749 24.8587 37.3953 22.607 33.1642 22.607C31.4482 22.607 29.7559 23.2403 28.5806 24.2254Z" fill="white"/>
<path d="M59.8906 20.0039C65.2499 20.7076 69.0814 24.7886 69.0814 29.6436C69.0814 33.8888 65.8846 37.3366 61.536 37.6885C64.4508 35.9059 65.5555 33.5135 65.5555 30.2535C65.5555 25.586 63.3931 21.4582 59.8906 20.0039Z" fill="white"/>
<path d="M50.8406 19.7456C48.7485 20.59 47.0091 21.8096 45.4812 23.4983C43.4126 21.4109 42.0728 20.6134 39.7222 19.7691L50.8406 19.7456Z" fill="white"/>
<path d="M45.8574 23.9911C48.7016 21.0358 52.2275 19.4409 55.3303 19.4409C59.1853 19.4409 63.0167 21.9505 64.3565 26.4772C62.5936 23.4986 59.5849 22.6072 57.4223 22.6072C53.1207 22.6072 49.3598 26.1957 49.3598 30.699C48.4196 27.2981 46.9387 25.07 45.8574 23.9911Z" fill="white"/>
<path d="M21.7407 30.4409C21.7407 23.9441 26.7475 19.4409 34.0107 19.4409C40.6864 19.4409 45.9518 23.0763 48.2084 29.2448L48.8665 31.168C50.747 36.3279 53.8262 38.7907 58.3629 38.7907C61.7477 38.7907 65.6732 37.6414 67.6948 35.3194C65.9788 39.1894 62.2178 41.4175 57.6342 41.4175C52.3689 41.4175 48.5139 37.9463 46.2339 31.942L45.1996 29.2448C43.131 23.8972 39.3937 20.9654 34.5279 20.9654C29.0275 20.9654 25.2666 24.8588 25.2666 30.3471C25.2666 35.9526 29.4037 39.7287 35.6092 39.7287C37.6307 39.7287 39.3937 39.33 41.1566 38.4857C39.1821 40.3855 36.3848 41.4175 33.2821 41.4175C26.6299 41.4175 21.7407 36.7736 21.7407 30.4409Z" fill="white"/>
</svg>
