<svg width="196" height="238" viewBox="0 0 14 17" fill="none" xmlns="http://www.w3.org/2000/svg">
<path d="M9.46187 7.33213L6.68387 6.89613C5.02987 6.61593 4.37487 6.24223 4.37487 5.43263C4.37487 4.65403 5.12387 3.90663 6.80887 3.90663C8.99387 3.90663 10.1489 4.96543 10.7729 6.14873L13.3319 4.18693C12.3019 2.38083 10.4289 0.82373 7.24587 0.82373C3.37587 0.82373 0.97287 2.78573 0.97287 5.55713C0.97287 7.86153 2.34587 9.44973 5.34187 9.88563L8.05787 10.2905C10.0549 10.6019 10.3359 11.2247 10.3359 11.9098C10.3359 12.7818 9.36787 13.4669 7.83887 13.4669C5.84187 13.4669 4.15587 12.5949 3.03287 10.6953L0.192871 12.6883C1.78487 15.3664 4.43687 16.5497 7.58887 16.5497C11.6469 16.5497 13.7999 14.3076 13.7999 11.5361C13.7999 9.38743 12.6449 7.83033 9.46187 7.33213Z" fill="white"/>
</svg>
