<svg id="bigS" width="46" height="22" viewBox="0 0 46 22" fill="none" xmlns="http://www.w3.org/2000/svg">
<path d="M0 11C0 4.5032 5.0068 0 12.27 0C18.9457 0 24.2111 3.6354 26.4677 9.8039L27.1258 11.7271C29.0063 16.887 32.0855 19.3498 36.6222 19.3498C40.007 19.3498 43.9325 18.2005 45.9541 15.8785C44.2381 19.7485 40.4771 21.9766 35.8935 21.9766C30.6282 21.9766 26.7732 18.5054 24.4932 12.5011L23.4589 9.8039C21.3903 4.4563 17.653 1.5245 12.7872 1.5245C7.2868 1.5245 3.5259 5.4179 3.5259 10.9062C3.5259 16.5117 7.663 20.2878 13.8685 20.2878C15.89 20.2878 17.653 19.8891 19.4159 19.0448C17.4414 20.9446 14.6441 21.9766 11.5414 21.9766C4.8892 21.9766 0 17.3327 0 11Z" fill="white"/>
</svg>
